<svg xmlns="http://www.w3.org/2000/svg" viewBox="0 0 512 512" width="512" height="512">
  <defs>
    <linearGradient id="bgD" x1="0%" y1="0%" x2="100%" y2="100%">
      <stop offset="0%" style="stop-color:#f97316;stop-opacity:1" />
      <stop offset="100%" style="stop-color:#c2410c;stop-opacity:1" />
    </linearGradient>
    <filter id="shadowD" x="-10%" y="-10%" width="120%" height="120%">
      <feDropShadow dx="0" dy="12" stdDeviation="12" flood-color="#000" flood-opacity="0.25" />
    </filter>
  </defs>
  <rect width="512" height="512" rx="112" fill="url(#bgD)" />
  <g filter="url(#shadowD)">
    <!-- Coat -->
    <path d="M 110 460 C 110 320 402 320 402 460 Z" fill="#ffffff" />
    <!-- Shirt/Tie cutout -->
    <path d="M 210 350 L 256 460 L 302 350 Z" fill="#ffedd5" />
    <path d="M 246 360 L 266 360 L 256 420 Z" fill="#c2410c" />
    <!-- Hat Top -->
    <path d="M 180 230 C 180 120 332 120 332 230 Z" fill="#ffffff" />
    <!-- Hat Brim -->
    <path d="M 90 230 C 200 190 312 190 422 230 C 440 240 420 250 400 250 C 256 230 256 230 112 250 C 92 250 72 240 90 230 Z" fill="#ffffff" />
    <!-- Mustache -->
    <path d="M 200 320 Q 256 290 312 320 Q 256 340 200 320 Z" fill="#ffffff" />
    <!-- Glasses -->
    <rect x="180" y="250" width="60" height="40" rx="12" fill="#ffffff" />
    <rect x="272" y="250" width="60" height="40" rx="12" fill="#ffffff" />
    <line x1="240" y1="270" x2="272" y2="270" stroke="#ffffff" stroke-width="8" />
  </g>
</svg>
