<svg xmlns="http://www.w3.org/2000/svg" viewBox="0 0 512 512" width="512" height="512">
  <defs>
    <linearGradient id="bgE" x1="0%" y1="0%" x2="100%" y2="100%">
      <stop offset="0%" style="stop-color:#10b981;stop-opacity:1" />
      <stop offset="100%" style="stop-color:#047857;stop-opacity:1" />
    </linearGradient>
    <filter id="shadowE" x="-10%" y="-10%" width="120%" height="120%">
      <feDropShadow dx="0" dy="8" stdDeviation="8" flood-color="#000" flood-opacity="0.2" />
    </filter>
  </defs>
  <rect width="512" height="512" rx="112" fill="url(#bgE)" />
  <g filter="url(#shadowE)">
    <!-- Face -->
    <circle cx="256" cy="276" r="110" fill="#fef3c7" />
    <!-- Hair -->
    <path d="M 146 276 C 146 140 366 140 366 276 C 366 210 146 210 146 276 Z" fill="#78350f" />
    <!-- Eyes -->
    <circle cx="216" cy="266" r="14" fill="#1f2937" />
    <circle cx="296" cy="266" r="14" fill="#1f2937" />
    <circle cx="220" cy="260" r="4" fill="#ffffff" />
    <circle cx="300" cy="260" r="4" fill="#ffffff" />
    <!-- Smile -->
    <path d="M 236 326 Q 256 346 276 326" fill="none" stroke="#1f2937" stroke-width="8" stroke-linecap="round" />
    <!-- Magnifying Glass over right eye -->
    <circle cx="296" cy="266" r="45" fill="#bae6fd" fill-opacity="0.6" stroke="#f59e0b" stroke-width="12" />
    <line x1="330" y1="296" x2="390" y2="356" stroke="#f59e0b" stroke-width="16" stroke-linecap="round" />
    <!-- Detective Hat -->
    <path d="M 156 166 Q 256 96 356 166 L 376 186 L 136 186 Z" fill="#92400e" />
    <path d="M 106 186 L 406 186" fill="none" stroke="#92400e" stroke-width="16" stroke-linecap="round" />
    <path d="M 136 170 L 376 170" fill="none" stroke="#b45309" stroke-width="12" />
  </g>
</svg>
