<?xml version="1.0" encoding="UTF-8" standalone="no"?><svg xmlns="http://www.w3.org/2000/svg" xmlns:xlink="http://www.w3.org/1999/xlink" contentScriptType="text/ecmascript" fill="#000000" width="877" zoomAndPan="magnify" contentStyleType="text/css" viewBox="0.0 0.0 877.0 877.0" height="877" preserveAspectRatio="xMidYMid meet" version="1"><g data-name="Layer 2"><g data-name="Layer 1"><g id="change1_1"><circle fill="#f4bdbd" r="438.48" cx="438.48" cy="438.48"/></g><g id="change2_1"><path fill="#db9191" d="M762.26,438.48c0,178.82-145,323.78-323.78,323.78s-323.79-145-323.79-323.78q0-13.91,1.15-27.49c13.95-166,153.07-296.3,322.64-296.3,168.16,0,306.37,128.18,322.26,292.18Q762.24,422.47,762.26,438.48Z"/></g><g id="change3_1"><path fill="#efa8a8" d="M760.74,406.87c-14,166-153.08,296.3-322.64,296.3C269.93,703.17,131.72,575,115.84,411c13.95-166,153.07-296.3,322.64-296.3C606.64,114.69,744.85,242.87,760.74,406.87Z"/></g><g id="change4_1"><path fill="#886244" d="M338.11,331.72V544.18c0,30.28,33.16,48.87,59,33.08L582.55,463.87c25.57-15.64,24.48-53.14-2-67.27L395.15,297.53C369.32,283.73,338.11,302.44,338.11,331.72Z"/></g><g id="change4_2"><path fill="#886244" d="M776.06,298.4a21.47,21.47,0,0,1-20-13.7c-21.49-55.37-58.56-102.89-110.2-141.27-39.09-29-72.28-41.6-72.62-41.73a21.47,21.47,0,0,1,14.91-40.26c1.54.57,38.25,14.3,82,46.6,58.06,42.79,101.59,98.51,125.89,161.13a21.46,21.46,0,0,1-20,29.23Z"/></g><g id="change4_3"><circle fill="#886244" r="23.08" cx="799.13" cy="337.58"/></g></g></g></svg>